<svg width="286" height="13" viewBox="0 0 286 13" fill="none" xmlns="http://www.w3.org/2000/svg">
<path d="M0.937256 11.6162C5.37263 10.0616 23.5608 4.07209 29.1997 5.44518C31.4757 5.99939 32.1072 8.50459 33.6531 9.36013C37.7117 11.6062 43.896 10.8808 49.069 9.62555C53.9879 8.43197 57.7456 6.22664 63.6284 5.64424C69.2013 5.09253 76.8648 7.28484 81.9562 7.90032C94.435 9.40886 117.645 11.6029 125.463 6.10873C135.403 -0.875972 149.281 2.27949 163.66 4.78163C171.796 6.19731 182.522 8.46621 191.751 8.43116C197.974 8.40753 205.509 5.79482 211.278 4.98069C226.279 2.86371 238.453 5.68826 252.216 7.96668C258.539 9.01349 264.417 10.3261 269.345 7.83397C274.248 5.3539 278.781 3.57319 284.589 1.46387" stroke="black" stroke-linecap="round"/>
</svg>
