<svg width="18" height="22" viewBox="0 0 18 22" fill="none" xmlns="http://www.w3.org/2000/svg">
<path d="M4.20845 8.57616C4.9871 7.06763 5.60813 5.45024 6.72788 3.11743C7.28775 1.76436 8.21828 0.319701 8.02414 2.13526C7.55074 6.5625 7.7788 11.0248 7.24974 15.4586C7.05284 17.1086 6.45799 22.0356 6.37678 20.3785C6.35394 19.9125 6.09625 19.3737 5.67278 19.0617C5.39155 18.8545 4.93068 18.9182 4.60269 18.93C4.29209 18.9413 1.28724 19.1676 1.30797 19.2293C1.54367 19.9307 9.41053 19.0109 10.5445 18.942C11.0334 18.9123 12.4593 19.1335 11.9525 18.4871" stroke="black" stroke-linecap="round"/>
<path d="M14.8843 17.4872C14.8843 18.6785 14.8981 20.0088 16.0964 20.6691C17.018 21.1769 17.2874 20.1574 17.2707 19.4569C17.2632 19.1413 16.7518 17.9338 16.3237 18.6615C16.1052 19.0329 16.248 19.8036 16.248 20.2145" stroke="black" stroke-linecap="round"/>
</svg>
